<svg width="24" height="18" viewBox="0 0 24 18" fill="none" xmlns="http://www.w3.org/2000/svg">
<path d="M22.8736 5.81776C22.766 5.68651 22.6055 5.6099 22.437 5.6099H20.2959C19.7676 4.2163 19.0792 2.85086 18.2968 2.33544C15.5901 0.554852 8.41087 0.554852 5.70421 2.33544C4.92123 2.85143 4.23569 4.21855 3.7045 5.6099H1.5634C1.39328 5.6099 1.2333 5.68651 1.12684 5.81776C1.01981 5.94845 0.977001 6.12138 1.01193 6.28755L1.32906 7.82424C1.38314 8.08617 1.61409 8.27319 1.88053 8.27319H2.51481C1.9025 8.97956 1.60564 9.86901 1.6017 10.759C1.59776 11.8586 2.01516 12.8522 2.77843 13.5552C2.78688 13.5626 2.79533 13.5676 2.80322 13.575V15.7251C2.80322 16.1909 3.18176 16.57 3.64817 16.57H5.6231C6.08951 16.57 6.46805 16.1909 6.46805 15.7251V14.861H17.5318V15.7251C17.5318 16.1909 17.9104 16.57 18.3768 16.57H20.3517C20.817 16.57 21.1966 16.1909 21.1966 15.7251V13.6172C22.0067 12.8753 22.3937 11.8546 22.3987 10.8356C22.4021 9.9152 22.0917 8.99308 21.4434 8.27206H22.1199C22.3875 8.27206 22.6184 8.08504 22.6714 7.82255L22.9891 6.28643C23.0217 6.12138 22.9806 5.94957 22.8736 5.81776ZM6.63197 3.74651C8.78941 2.32643 15.2105 2.32643 17.3668 3.74651C17.7859 4.0214 18.3249 5.13279 18.819 6.49372H5.18091C5.67379 5.13335 6.21287 4.02253 6.63197 3.74651ZM4.105 10.9708C4.105 10.0527 4.84969 9.30909 5.7673 9.30909C6.68604 9.30909 7.4296 10.0527 7.4296 10.9708C7.4296 11.889 6.68604 12.6331 5.7673 12.6331C4.84969 12.6331 4.105 11.889 4.105 10.9708ZM18.2545 12.6331C17.3369 12.6331 16.5922 11.889 16.5922 10.9708C16.5922 10.0527 17.3369 9.30909 18.2545 9.30909C19.1733 9.30909 19.9168 10.0527 19.9168 10.9708C19.9168 11.889 19.1721 12.6331 18.2545 12.6331Z" stroke="#737373" stroke-linecap="round"/>
</svg>
